<svg width="30" height="30" viewBox="0 0 30 30" fill="none" xmlns="http://www.w3.org/2000/svg">
<circle cx="15" cy="15" r="14.5" fill="#F5F5F5" stroke="#656060"/>
<path d="M6.66667 20.5V12.7778C6.66667 11.7039 7.53723 10.8333 8.61112 10.8333C9.22314 10.8333 9.79946 10.5452 10.1667 10.0556L11.9033 7.74C12.0167 7.58892 12.1945 7.5 12.3833 7.5H17.6167C17.8055 7.5 17.9834 7.58892 18.0967 7.74L19.8333 10.0556C20.2006 10.5452 20.7769 10.8333 21.3889 10.8333C22.4628 10.8333 23.3333 11.7039 23.3333 12.7778V20.5C23.3333 21.6046 22.4379 22.5 21.3333 22.5H8.66667C7.5621 22.5 6.66667 21.6046 6.66667 20.5Z" stroke="black" stroke-width="1.5" stroke-linecap="round" stroke-linejoin="round"/>
<path d="M15 19.1667C16.841 19.1667 18.3333 17.6743 18.3333 15.8333C18.3333 13.9924 16.841 12.5 15 12.5C13.1591 12.5 11.6667 13.9924 11.6667 15.8333C11.6667 17.6743 13.1591 19.1667 15 19.1667Z" stroke="black" stroke-width="1.5" stroke-linecap="round" stroke-linejoin="round"/>
</svg>
