<svg width="100" height="80" viewBox="0 0 100 80" fill="none" xmlns="http://www.w3.org/2000/svg">
<path d="M33.9744 17.7778C36.4526 17.7778 38.4615 15.7879 38.4615 13.3333C38.4615 10.8787 36.4526 8.88889 33.9744 8.88889C31.4962 8.88889 29.4872 10.8787 29.4872 13.3333C29.4872 15.7879 31.4962 17.7778 33.9744 17.7778Z" fill="#342E37"/>
<path d="M30.0699 19.6248H37.296V61.8759C37.296 65.647 36.5968 68.8504 35.1981 71.4863C33.7995 74.1222 31.8279 76.1232 29.2832 77.4891C26.7386 78.8552 23.7374 79.5383 20.2797 79.5383C17.0163 79.5383 14.1123 78.9514 11.5676 77.7778C9.02292 76.5849 7.02214 74.8918 5.56527 72.6984C4.1084 70.505 3.37995 67.898 3.37995 64.8773H10.4895C10.4895 66.5512 10.9072 68.0135 11.7424 69.2641C12.5971 70.4955 13.7626 71.4574 15.239 72.1501C16.7153 72.8427 18.3955 73.1891 20.2797 73.1891C22.3582 73.1891 24.1259 72.7562 25.5827 71.8903C27.0396 71.0245 28.1468 69.7547 28.9045 68.0808C29.6814 66.3877 30.0699 64.3194 30.0699 61.8759V19.6248Z" fill="#FA824C"/>
<path d="M41.0256 45.0794H53.8462" stroke="black"/>
<path d="M66.5865 57.5469C65.5485 57.5469 64.6562 57.4146 63.9095 57.1501C63.1628 56.8916 62.5406 56.5488 62.043 56.1219C61.5512 55.7011 61.1596 55.2502 60.8683 54.7691L62.5801 53.5787C62.7744 53.8311 63.0203 54.1198 63.3177 54.4445C63.6151 54.7751 64.0218 55.0607 64.5378 55.3012C65.0599 55.5477 65.7428 55.671 66.5865 55.671C67.7156 55.671 68.6474 55.4004 69.3819 54.8593C70.1164 54.3182 70.4837 53.4705 70.4837 52.3161V49.5022H70.3015C70.1437 49.7547 69.9191 50.0673 69.6278 50.4401C69.3424 50.8069 68.9297 51.1346 68.3895 51.4231C67.8553 51.7058 67.1328 51.847 66.2223 51.847C65.0932 51.847 64.0795 51.5825 63.181 51.0533C62.2887 50.5243 61.5815 49.7547 61.0595 48.7446C60.5436 47.7345 60.2855 46.5079 60.2855 45.0649C60.2855 43.646 60.5374 42.4104 61.0413 41.3582C61.5451 40.3001 62.2463 39.4823 63.1446 38.9051C64.0431 38.3219 65.0812 38.0304 66.2587 38.0304C67.1692 38.0304 67.8917 38.1806 68.4259 38.4813C68.9662 38.7759 69.3788 39.1125 69.6642 39.4913C69.9555 39.8641 70.1801 40.1708 70.338 40.4113H70.5565V38.2107H72.6326V52.4603C72.6326 53.6508 72.3594 54.6188 71.8131 55.3643C71.2728 56.1159 70.5444 56.666 69.6278 57.0147C68.7172 57.3695 67.7035 57.5469 66.5865 57.5469ZM66.5137 49.9351C67.3756 49.9351 68.1041 49.7397 68.699 49.3488C69.2938 48.9581 69.7462 48.3958 70.0558 47.6624C70.3653 46.9288 70.5201 46.0511 70.5201 45.0288C70.5201 44.0307 70.3683 43.15 70.0649 42.3864C69.7613 41.6227 69.3121 41.0245 68.7172 40.5916C68.1223 40.1587 67.3878 39.9422 66.5137 39.9422C65.6032 39.9422 64.8444 40.1708 64.2373 40.6277C63.6364 41.0847 63.1841 41.6979 62.8806 42.4676C62.5832 43.2371 62.4345 44.0909 62.4345 45.0288C62.4345 45.9909 62.5862 46.8417 62.8897 47.5812C63.1994 48.3147 63.6546 48.8919 64.2555 49.3128C64.8626 49.7276 65.6153 49.9351 66.5137 49.9351ZM82.4301 52.3521C81.0824 52.3521 79.92 52.0575 78.9427 51.4682C77.9714 50.873 77.2218 50.0433 76.6936 48.9791C76.1715 47.9088 75.9105 46.6643 75.9105 45.2453C75.9105 43.8264 76.1715 42.5758 76.6936 41.4935C77.2218 40.4052 77.9563 39.5575 78.8972 38.9502C79.8441 38.3369 80.949 38.0304 82.2115 38.0304C82.94 38.0304 83.6594 38.1506 84.3695 38.3911C85.0797 38.6315 85.7263 39.0224 86.309 39.5634C86.8918 40.0987 87.3562 40.8081 87.7022 41.6919C88.0482 42.5758 88.2212 43.664 88.2212 44.9567V45.8585H77.4403V44.0188H86.0359C86.0359 43.2371 85.878 42.5397 85.5623 41.9264C85.2528 41.3131 84.8096 40.8291 84.2329 40.4744C83.6623 40.1196 82.9886 39.9422 82.2115 39.9422C81.3556 39.9422 80.615 40.1528 79.9897 40.5736C79.3706 40.9884 78.8941 41.5295 78.5603 42.197C78.2264 42.8644 78.0595 43.5798 78.0595 44.3435V45.57C78.0595 46.6161 78.2415 47.503 78.6058 48.2305C78.976 48.952 79.489 49.5022 80.1446 49.8809C80.8001 50.2537 81.5621 50.4401 82.4301 50.4401C82.9946 50.4401 83.5045 50.3619 83.9597 50.2056C84.4212 50.0433 84.8187 49.8028 85.1526 49.4842C85.4865 49.1595 85.7445 48.7566 85.9265 48.2756L88.0026 48.8528C87.7841 49.5502 87.4168 50.1636 86.9009 50.6927C86.3849 51.2158 85.7474 51.6246 84.9887 51.9192C84.2299 52.2077 83.3771 52.3521 82.4301 52.3521ZM97.5724 38.2107V40.0145H90.3245V38.2107H97.5724ZM92.437 34.8918H94.5859V48.0952C94.5859 48.6965 94.6738 49.1474 94.85 49.448C95.0321 49.7426 95.2627 49.9411 95.5419 50.0433C95.8273 50.1394 96.1277 50.1876 96.4435 50.1876C96.6801 50.1876 96.8744 50.1756 97.0261 50.1515C97.1779 50.1214 97.2994 50.0974 97.3904 50.0794L97.8274 51.9914C97.6818 52.0455 97.4783 52.0996 97.2173 52.1537C96.9563 52.2138 96.6255 52.2438 96.2249 52.2438C95.6178 52.2438 95.0229 52.1145 94.4403 51.856C93.8635 51.5975 93.384 51.2037 93.0015 50.6745C92.6251 50.1455 92.437 49.4781 92.437 48.6724V34.8918Z" fill="black"/>
</svg>
