<svg width="21" height="20" viewBox="0 0 21 20" fill="none" xmlns="http://www.w3.org/2000/svg">
<path d="M19.8953 18.9326L13.8189 12.8206C14.9515 11.4646 15.634 9.71994 15.634 7.81497C15.634 3.49892 12.1342 0 7.81702 0C3.49984 0 0 3.49892 0 7.81497C0 12.131 3.49984 15.6299 7.81702 15.6299C9.77847 15.6299 11.5701 14.906 12.9428 13.7125L19.0107 19.8169C19.2549 20.061 19.6511 20.061 19.8953 19.8169C20.1392 19.5727 20.1392 19.177 19.8953 18.9326H19.8953ZM7.81702 14.3899C4.18492 14.3899 1.24041 11.4461 1.24041 7.81497C1.24041 4.18382 4.18492 1.24008 7.81702 1.24008C11.4491 1.24008 14.3936 4.18382 14.3936 7.81497C14.3936 11.4461 11.4491 14.3899 7.81702 14.3899Z" fill="#342E37"/>
</svg>
