<svg width="253" height="304" viewBox="0 0 253 304" fill="none" xmlns="http://www.w3.org/2000/svg">
<path d="M105.667 156.25H74.4167M22.3333 125C22.3333 182.53 68.9704 229.167 126.5 229.167C184.03 229.167 230.667 182.53 230.667 125C230.667 67.4703 184.03 20.8333 126.5 20.8333C68.9704 20.8333 22.3333 67.4703 22.3333 125Z" stroke="black" stroke-width="5" stroke-linecap="round" stroke-linejoin="round"/>
<path d="M90.0417 93.7499C87.1652 93.7499 84.8333 91.4181 84.8333 88.5416C84.8333 85.6651 87.1652 83.3333 90.0417 83.3333C92.9182 83.3333 95.25 85.6651 95.25 88.5416C95.25 91.4181 92.9182 93.7499 90.0417 93.7499Z" fill="black" stroke="black" stroke-width="1.5" stroke-linecap="round" stroke-linejoin="round"/>
<path d="M162.958 93.7499C160.082 93.7499 157.75 91.4181 157.75 88.5416C157.75 85.6651 160.082 83.3333 162.958 83.3333C165.835 83.3333 168.167 85.6651 168.167 88.5416C168.167 91.4181 165.835 93.7499 162.958 93.7499Z" fill="black" stroke="black" stroke-width="1.5" stroke-linecap="round" stroke-linejoin="round"/>
<path d="M15.1705 280.545V298H13.0568V282.42H4.26136V298H2.14773V280.545H15.1705ZM20.4567 302.909C20.1158 302.909 19.8118 302.881 19.5447 302.824C19.2777 302.773 19.093 302.722 18.9908 302.67L19.5021 300.898C19.9908 301.023 20.4226 301.068 20.7976 301.034C21.1726 301 21.505 300.832 21.7947 300.531C22.0902 300.236 22.3601 299.756 22.6044 299.091L22.9794 298.068L18.1385 284.909H20.3203L23.9339 295.341H24.0703L27.6839 284.909H29.8658L24.3089 299.909C24.0589 300.585 23.7493 301.145 23.38 301.588C23.0107 302.037 22.5817 302.369 22.093 302.585C21.6101 302.801 21.0646 302.909 20.4567 302.909ZM42.2365 280L43.2592 281.227C42.8615 281.614 42.4013 281.884 41.8786 282.037C41.3558 282.19 40.7649 282.284 40.1058 282.318C39.4467 282.352 38.7138 282.386 37.907 282.42C36.9979 282.455 36.245 282.676 35.6484 283.085C35.0518 283.494 34.5916 284.085 34.2678 284.858C33.9439 285.631 33.7365 286.58 33.6456 287.705H33.8161C34.2592 286.886 34.8729 286.284 35.657 285.898C36.4411 285.511 37.282 285.318 38.1797 285.318C39.2024 285.318 40.1229 285.557 40.9411 286.034C41.7592 286.511 42.407 287.219 42.8842 288.156C43.3615 289.094 43.6001 290.25 43.6001 291.625C43.6001 292.994 43.3558 294.176 42.8672 295.17C42.3842 296.165 41.7053 296.932 40.8303 297.472C39.9609 298.006 38.9411 298.273 37.7706 298.273C36.6001 298.273 35.5746 297.997 34.6939 297.446C33.8132 296.889 33.1286 296.065 32.6399 294.974C32.1513 293.878 31.907 292.523 31.907 290.909V289.511C31.907 286.597 32.4013 284.386 33.3899 282.881C34.3842 281.375 35.8786 280.597 37.8729 280.545C38.5774 280.523 39.2053 280.517 39.7564 280.528C40.3075 280.54 40.7876 280.514 41.1967 280.452C41.6058 280.389 41.9524 280.239 42.2365 280ZM37.7706 296.466C38.5604 296.466 39.2393 296.267 39.8075 295.869C40.3814 295.472 40.8217 294.912 41.1286 294.19C41.4354 293.463 41.5888 292.608 41.5888 291.625C41.5888 290.67 41.4325 289.858 41.12 289.188C40.8132 288.517 40.3729 288.006 39.799 287.653C39.2251 287.301 38.5376 287.125 37.7365 287.125C37.1513 287.125 36.6257 287.224 36.1598 287.423C35.6939 287.622 35.2962 287.915 34.9666 288.301C34.6371 288.687 34.3814 289.159 34.1996 289.716C34.0234 290.273 33.9297 290.909 33.9183 291.625C33.9183 293.091 34.2621 294.264 34.9496 295.145C35.6371 296.026 36.5774 296.466 37.7706 296.466ZM45.5178 298V296.125H45.995C46.3871 296.125 46.7138 296.048 46.9751 295.895C47.2365 295.736 47.4467 295.46 47.6058 295.068C47.7706 294.67 47.8956 294.119 47.9808 293.415C48.0717 292.705 48.1371 291.801 48.1768 290.705L48.4155 284.909H57.1428V298H55.1314V286.784H50.3246L50.12 291.455C50.0746 292.528 49.978 293.474 49.8303 294.293C49.6882 295.105 49.4695 295.787 49.174 296.338C48.8842 296.889 48.4979 297.304 48.0149 297.582C47.532 297.861 46.9268 298 46.1996 298H45.5178ZM62.8445 295.034L69.1513 284.909H71.4695V298H69.4581V287.875L63.1854 298H60.8331V284.909H62.8445V295.034ZM75.1534 298V284.909H77.1648V290.602H78.4943L83.1989 284.909H85.7898L80.5057 291.216L85.858 298H83.267L78.9716 292.477H77.1648V298H75.1534ZM91.8963 298.307C91.0668 298.307 90.3139 298.151 89.6378 297.838C88.9616 297.52 88.4247 297.062 88.027 296.466C87.6293 295.864 87.4304 295.136 87.4304 294.284C87.4304 293.534 87.5781 292.926 87.8736 292.46C88.169 291.989 88.5639 291.619 89.0582 291.352C89.5526 291.085 90.098 290.886 90.6946 290.756C91.2969 290.619 91.902 290.511 92.5099 290.432C93.3054 290.33 93.9503 290.253 94.4446 290.202C94.9446 290.145 95.3082 290.051 95.5355 289.92C95.7685 289.79 95.8849 289.562 95.8849 289.239V289.17C95.8849 288.33 95.6548 287.676 95.1946 287.21C94.7401 286.744 94.0497 286.511 93.1236 286.511C92.1634 286.511 91.4105 286.722 90.8651 287.142C90.3196 287.562 89.9361 288.011 89.7145 288.489L87.8054 287.807C88.1463 287.011 88.6009 286.392 89.169 285.949C89.7429 285.5 90.3679 285.187 91.044 285.011C91.7259 284.83 92.3963 284.739 93.0554 284.739C93.4759 284.739 93.9588 284.79 94.5043 284.892C95.0554 284.989 95.5866 285.19 96.098 285.497C96.6151 285.804 97.044 286.267 97.3849 286.886C97.7259 287.506 97.8963 288.335 97.8963 289.375V298H95.8849V296.227H95.7827C95.6463 296.511 95.419 296.815 95.1009 297.139C94.7827 297.463 94.3594 297.739 93.831 297.966C93.3026 298.193 92.6577 298.307 91.8963 298.307ZM92.2031 296.5C92.9986 296.5 93.669 296.344 94.2145 296.031C94.7656 295.719 95.1804 295.315 95.4588 294.821C95.7429 294.327 95.8849 293.807 95.8849 293.261V291.42C95.7997 291.523 95.6122 291.616 95.3224 291.702C95.0384 291.781 94.7088 291.852 94.3338 291.915C93.9645 291.972 93.6037 292.023 93.2514 292.068C92.9048 292.108 92.6236 292.142 92.4077 292.17C91.8849 292.239 91.3963 292.349 90.9418 292.503C90.4929 292.651 90.1293 292.875 89.8509 293.176C89.5781 293.472 89.4418 293.875 89.4418 294.386C89.4418 295.085 89.7003 295.614 90.2173 295.972C90.7401 296.324 91.402 296.5 92.2031 296.5ZM111.863 284.909V296.125H113.704V302.227H111.692V298H101.567V284.909H103.579V296.125H109.852V284.909H111.863ZM118.813 295.034L125.12 284.909H127.438V298H125.427V287.875L119.154 298H116.802V284.909H118.813V295.034ZM133.134 295.034L139.44 284.909H141.759V298H139.747V287.875L133.474 298H131.122V284.909H133.134V295.034ZM138.111 280.545H139.986C139.986 281.466 139.668 282.219 139.031 282.804C138.395 283.389 137.531 283.682 136.44 283.682C135.366 283.682 134.511 283.389 133.875 282.804C133.244 282.219 132.929 281.466 132.929 280.545H134.804C134.804 280.989 134.926 281.378 135.17 281.713C135.42 282.048 135.844 282.216 136.44 282.216C137.037 282.216 137.463 282.048 137.719 281.713C137.98 281.378 138.111 280.989 138.111 280.545ZM152.192 298V284.909H162.488V298H160.477V286.784H154.204V298H152.192ZM171.479 298.273C170.298 298.273 169.261 297.991 168.369 297.429C167.482 296.866 166.789 296.08 166.289 295.068C165.795 294.057 165.548 292.875 165.548 291.523C165.548 290.159 165.795 288.969 166.289 287.952C166.789 286.935 167.482 286.145 168.369 285.582C169.261 285.02 170.298 284.739 171.479 284.739C172.661 284.739 173.695 285.02 174.582 285.582C175.474 286.145 176.167 286.935 176.661 287.952C177.161 288.969 177.411 290.159 177.411 291.523C177.411 292.875 177.161 294.057 176.661 295.068C176.167 296.08 175.474 296.866 174.582 297.429C173.695 297.991 172.661 298.273 171.479 298.273ZM171.479 296.466C172.377 296.466 173.116 296.236 173.695 295.776C174.275 295.315 174.704 294.71 174.982 293.96C175.261 293.21 175.4 292.398 175.4 291.523C175.4 290.648 175.261 289.832 174.982 289.077C174.704 288.321 174.275 287.71 173.695 287.244C173.116 286.778 172.377 286.545 171.479 286.545C170.582 286.545 169.843 286.778 169.263 287.244C168.684 287.71 168.255 288.321 167.977 289.077C167.698 289.832 167.559 290.648 167.559 291.523C167.559 292.398 167.698 293.21 167.977 293.96C168.255 294.71 168.684 295.315 169.263 295.776C169.843 296.236 170.582 296.466 171.479 296.466ZM180.482 298V284.909H182.493V290.602H183.822L188.527 284.909H191.118L185.834 291.216L191.186 298H188.595L184.3 292.477H182.493V298H180.482ZM197.224 298.307C196.395 298.307 195.642 298.151 194.966 297.838C194.29 297.52 193.753 297.062 193.355 296.466C192.957 295.864 192.759 295.136 192.759 294.284C192.759 293.534 192.906 292.926 193.202 292.46C193.497 291.989 193.892 291.619 194.386 291.352C194.881 291.085 195.426 290.886 196.023 290.756C196.625 290.619 197.23 290.511 197.838 290.432C198.634 290.33 199.278 290.253 199.773 290.202C200.273 290.145 200.636 290.051 200.864 289.92C201.097 289.79 201.213 289.562 201.213 289.239V289.17C201.213 288.33 200.983 287.676 200.523 287.21C200.068 286.744 199.378 286.511 198.452 286.511C197.491 286.511 196.739 286.722 196.193 287.142C195.648 287.562 195.264 288.011 195.043 288.489L193.134 287.807C193.474 287.011 193.929 286.392 194.497 285.949C195.071 285.5 195.696 285.187 196.372 285.011C197.054 284.83 197.724 284.739 198.384 284.739C198.804 284.739 199.287 284.79 199.832 284.892C200.384 284.989 200.915 285.19 201.426 285.497C201.943 285.804 202.372 286.267 202.713 286.886C203.054 287.506 203.224 288.335 203.224 289.375V298H201.213V296.227H201.111C200.974 296.511 200.747 296.815 200.429 297.139C200.111 297.463 199.688 297.739 199.159 297.966C198.631 298.193 197.986 298.307 197.224 298.307ZM197.531 296.5C198.327 296.5 198.997 296.344 199.543 296.031C200.094 295.719 200.509 295.315 200.787 294.821C201.071 294.327 201.213 293.807 201.213 293.261V291.42C201.128 291.523 200.94 291.616 200.651 291.702C200.366 291.781 200.037 291.852 199.662 291.915C199.293 291.972 198.932 292.023 198.58 292.068C198.233 292.108 197.952 292.142 197.736 292.17C197.213 292.239 196.724 292.349 196.27 292.503C195.821 292.651 195.457 292.875 195.179 293.176C194.906 293.472 194.77 293.875 194.77 294.386C194.77 295.085 195.028 295.614 195.545 295.972C196.068 296.324 196.73 296.5 197.531 296.5ZM222.407 290.534V292.409H215.18V290.534H222.407ZM215.657 284.909V298H213.646V284.909H215.657ZM223.941 284.909V298H221.93V284.909H223.941ZM233.103 298.273C231.842 298.273 230.754 297.994 229.839 297.438C228.93 296.875 228.228 296.091 227.734 295.085C227.245 294.074 227.001 292.898 227.001 291.557C227.001 290.216 227.245 289.034 227.734 288.011C228.228 286.983 228.915 286.182 229.796 285.608C230.683 285.028 231.717 284.739 232.898 284.739C233.58 284.739 234.254 284.852 234.918 285.08C235.583 285.307 236.188 285.676 236.734 286.188C237.279 286.693 237.714 287.364 238.038 288.199C238.362 289.034 238.523 290.062 238.523 291.284V292.136H228.433V290.398H236.478C236.478 289.659 236.33 289 236.035 288.42C235.745 287.841 235.33 287.384 234.79 287.048C234.256 286.713 233.626 286.545 232.898 286.545C232.097 286.545 231.404 286.744 230.819 287.142C230.239 287.534 229.793 288.045 229.481 288.676C229.168 289.307 229.012 289.983 229.012 290.705V291.864C229.012 292.852 229.183 293.69 229.523 294.378C229.87 295.06 230.35 295.58 230.964 295.938C231.577 296.29 232.29 296.466 233.103 296.466C233.631 296.466 234.109 296.392 234.535 296.244C234.967 296.091 235.339 295.864 235.651 295.562C235.964 295.256 236.205 294.875 236.376 294.42L238.319 294.966C238.114 295.625 237.771 296.205 237.288 296.705C236.805 297.199 236.208 297.585 235.498 297.864C234.788 298.136 233.989 298.273 233.103 298.273ZM240.364 286.784V284.909H251.001V286.784H246.705V298H244.694V286.784H240.364Z" fill="black"/>
</svg>
